<?xml version="1.0" encoding="UTF-8"?>
<svg id="Layer_2" data-name="Layer 2" xmlns="http://www.w3.org/2000/svg" viewBox="0 0 425.77 43.51">
  <defs>
    <style>
      .cls-1 {
        fill: #fff;
      }
    </style>
  </defs>
  <g id="Layer_1-2" data-name="Layer 1">
    <path class="cls-1" d="M17.22,21.26c1.46-.43,2.63-1.2,3.51-2.31.88-1.11,1.32-2.5,1.32-4.17,0-2.27-.82-4.07-2.45-5.39-1.63-1.32-3.9-1.99-6.79-1.99H0v28.45h13.25c2.97,0,5.29-.7,6.95-2.09,1.66-1.39,2.49-3.28,2.49-5.65,0-1.65-.5-3.11-1.5-4.4-1-1.28-2.32-2.1-3.97-2.45ZM6.93,12.95h4.54c1.13,0,2.01.26,2.61.77.61.51.91,1.26.91,2.23s-.3,1.71-.91,2.21c-.61.5-1.48.75-2.61.75h-4.54v-5.96ZM14.73,29.47c-.63.53-1.53.79-2.69.79h-5.11v-6.28h5.02c1.16,0,2.07.28,2.74.85.66.57.99,1.35.99,2.35s-.32,1.76-.95,2.29ZM35.13,7.4l-10.29,28.45h7.25l1.7-5.02h10.62l1.7,5.02h7.33l-10.29-28.45h-8.02ZM35.62,25.47l3.48-10.41,3.53,10.41h-7.01ZM75.98,23.21c.84,1.08,1.26,2.47,1.26,4.17s-.41,3.09-1.24,4.42c-.82,1.32-2.02,2.38-3.59,3.16-1.57.78-3.42,1.18-5.55,1.18s-3.94-.34-5.59-1.01c-1.65-.67-2.97-1.67-3.95-3-.99-1.32-1.51-2.92-1.56-4.78h7.38c.11,1.05.47,1.86,1.09,2.41.62.55,1.43.83,2.43.83s1.84-.24,2.43-.71.89-1.13.89-1.97c0-.7-.24-1.28-.71-1.74-.47-.46-1.05-.84-1.74-1.13-.69-.3-1.67-.63-2.94-1.01-1.84-.57-3.34-1.13-4.5-1.7-1.16-.57-2.16-1.4-3-2.51-.84-1.11-1.26-2.55-1.26-4.34,0-2.65.96-4.72,2.88-6.22,1.92-1.5,4.42-2.25,7.5-2.25s5.66.75,7.58,2.25c1.92,1.5,2.94,3.59,3.08,6.26h-7.5c-.05-.92-.39-1.64-1.01-2.17-.62-.53-1.42-.79-2.39-.79-.84,0-1.51.22-2.03.67s-.77,1.09-.77,1.92c0,.92.43,1.63,1.3,2.15.86.51,2.21,1.07,4.05,1.66,1.84.62,3.33,1.22,4.48,1.78,1.15.57,2.14,1.39,2.98,2.47ZM79.95,7.4h22v5.55h-7.54v22.9h-6.93V12.95h-7.54v-5.55ZM122.06,7.4h7.78l-9.85,19.05v9.4h-6.93v-9.4l-9.85-19.05h7.86l5.51,11.91,5.47-11.91ZM141.06,7.4l-10.29,28.45h7.25l1.7-5.02h10.62l1.7,5.02h7.33l-10.29-28.45h-8.02ZM141.55,25.47l3.48-10.41,3.53,10.41h-7.01ZM181.91,23.21c.84,1.08,1.26,2.47,1.26,4.17s-.41,3.09-1.24,4.42c-.82,1.32-2.02,2.38-3.59,3.16-1.57.78-3.42,1.18-5.55,1.18s-3.94-.34-5.59-1.01c-1.65-.67-2.97-1.67-3.95-3-.99-1.32-1.51-2.92-1.56-4.78h7.38c.11,1.05.47,1.86,1.09,2.41.62.55,1.43.83,2.43.83s1.84-.24,2.43-.71.89-1.13.89-1.97c0-.7-.24-1.28-.71-1.74-.47-.46-1.05-.84-1.74-1.13-.69-.3-1.67-.63-2.94-1.01-1.84-.57-3.34-1.13-4.5-1.7-1.16-.57-2.16-1.4-3-2.51-.84-1.11-1.26-2.55-1.26-4.34,0-2.65.96-4.72,2.88-6.22,1.92-1.5,4.42-2.25,7.5-2.25s5.66.75,7.58,2.25c1.92,1.5,2.94,3.59,3.08,6.26h-7.5c-.05-.92-.39-1.64-1.01-2.17-.62-.53-1.42-.79-2.39-.79-.84,0-1.51.22-2.03.67s-.77,1.09-.77,1.92c0,.92.43,1.63,1.3,2.15.86.51,2.21,1.07,4.05,1.66,1.84.62,3.33,1.22,4.48,1.78,1.15.57,2.14,1.39,2.98,2.47ZM195.85,7.4l-10.29,28.45h7.25l1.7-5.02h10.62l1.7,5.02h7.33l-10.29-28.45h-8.02ZM196.34,25.47l3.48-10.41,3.53,10.41h-7.01ZM230.82,21.34l11.43,14.51h-8.47l-9.56-12.56v12.56h-6.93V7.4h6.93v12.48l9.48-12.48h8.15l-11.02,13.94ZM253.96,7.4l-10.29,28.45h7.25l1.7-5.02h10.62l1.7,5.02h7.33l-10.29-28.45h-8.02ZM254.45,25.47l3.48-10.41,3.53,10.41h-7.01ZM318.3,22.83c0-.18-.05-.45-.16-.81-.11-.36-.3-.67-.59-.94-.33-.23-.6-.37-.79-.41-.17-.06-.25-.11-.25-.17,0-.08.19-.37.56-.86.17-.22.64-.85,1.38-1.87,1.28-1.71,2.53-3.48,3.76-5.31,1.37-2.03,2.46-3.99,3.27-5.88.34-.68.57-1.34.69-1.98.02-.13.04-.27.04-.42,0-.52-.17-1.05-.51-1.6-.68-.94-1.47-1.55-2.35-1.82-.54-.17-1.1-.25-1.68-.25-1.14,0-2.46.33-3.94.98-3.13,1.42-6.26,3.19-9.39,5.29-3.13,2.11-6.01,4.27-8.64,6.5-1.93,1.68-3.78,3.39-5.56,5.14-.81.79-1.64,1.57-2.48,2.36l-.38.39c-.17.19-.34.36-.52.49-.18.14-.42.24-.7.3-.72.03-1.45.08-2.17.14-1.21.1-2.11.15-2.72.15-.55,0-1.09-.03-1.62-.08-.53-.05-1.06-.08-1.6-.08-.8.04-1.32.3-1.54.77-.08.16-.12.33-.12.51,0,.35.15.73.44,1.15.29.34.71.56,1.24.66.37.06.77.1,1.19.1.59,0,1.36-.06,2.3-.18.39-.05.72-.08,1-.11.17-.02.32-.03.45-.05.13-.02.24-.02.33-.02.21,0,.32.05.32.16s-.09.29-.26.57c-.33.43-.68.86-1.03,1.29-.95,1.11-1.83,2.27-2.64,3.48-.81,1.2-1.39,2.53-1.76,3.96-.03.14-.05.29-.05.43,0,.76.27,1.38.8,1.86.27.25.59.37.97.37.52-.02.84-.16.98-.42.09-.19.13-.44.13-.74v-.2c.05-1.69,1.23-3.97,3.54-6.83.95-1.17,1.8-2.19,2.56-3.05.37-.4.55-.61.55-.63.06-.09.13-.17.2-.25.36-.23.76-.37,1.2-.43s.93-.08,1.46-.08c2.24-.06,4.48-.22,6.7-.46,3.12-.31,5.52-.47,7.21-.47.81,0,1.62.02,2.43.07-.18.48-.81,1.51-1.88,3.06-1.22,1.84-2.04,3.1-2.46,3.78-1.97,3.17-2.96,6.01-2.96,8.5,0,.85.17,1.63.5,2.35.21.41.56.8,1.03,1.18.47.38.98.67,1.53.87.35.13.68.19.99.19.18,0,.43-.04.73-.12.31-.08.54-.42.7-1.01.04-.2.06-.37.06-.51,0-.23-.08-.41-.23-.52-.15-.12-.41-.19-.77-.23-.17-.02-.35-.06-.54-.1-.8-.22-1.2-.78-1.2-1.68,0-.02,0-.26,0-.73,0-.47.27-1.36.8-2.67,1.12-2.74,3.05-6.09,5.79-10.05.41-.61.75-1.1,1.02-1.47.27-.37.58-.67.91-.91.28-.03.5-.05.66-.06.17,0,.31.01.42.04.12.02.24.06.39.11.56.17.98.26,1.28.26.64,0,.95-.34.95-1.01ZM314.48,18.34c-.73,1.04-1.24,1.72-1.54,2.03-.39.25-1.11.38-2.17.38h-.27c-2.38.06-4.76.19-7.13.37-2.8.21-5.6.34-8.41.37,2.63-2.64,5.09-4.86,7.38-6.67,2.44-1.97,4.94-3.86,7.51-5.66,1.48-1.03,3.26-2.12,5.34-3.28,2.08-1.16,3.97-1.99,5.68-2.46.52-.14.95-.21,1.3-.21.26,0,.49.06.69.17.23.2.35.45.35.74-.09.98-.71,2.42-1.86,4.33-1.72,2.85-4.01,6.16-6.87,9.91ZM418.18,19.58c-.11-.22-.17-.44-.17-.67s.06-.43.17-.64c.17-.17.33-.27.5-.29s.3-.03.39-.03c.36,0,.79.1,1.3.29,1.22.48,1.84.95,1.84,1.38,0,.41-.47.79-1.41,1.13-.31.1-.6.16-.86.16-.78,0-1.37-.44-1.76-1.32ZM425.37,27.93c-.11,0-.25.03-.42.1-1.59.61-3.16,1.32-4.71,2.13-1.44.75-2.91,1.42-4.4,2.03l-.12.04c-1.24.5-2.21.75-2.92.75-.41,0-.69-.13-.82-.38v-.17c-.01-.86,1.23-2.32,3.71-4.39.64-.52,1.1-.92,1.4-1.22.19-.23.29-.46.29-.7,0-.41-.21-.81-.62-1.2-.39-.35-.79-.54-1.19-.58-.87.18-2.01,1.07-3.43,2.68-.37.39-.68.73-.96,1.04-.82.25-1.98.75-3.48,1.51-1.23.62-2.49,1.22-3.79,1.8-1.29.58-2.24.89-2.86.94-.34-.06-.51-.29-.51-.67,0-.5.16-1.08.46-1.73.12-.27.25-.55.39-.85.25-.48.47-.99.67-1.51.17-.46.25-.91.25-1.35,0-.06,0-.24-.02-.53-.01-.29-.23-.64-.66-1.04-.53-.45-1.1-.68-1.69-.68-.5,0-1.01.1-1.54.31-.83.33-2,.99-3.51,1.98-1.75,1.14-3.01,1.85-3.78,2.15.33-.47.72-.89,1.17-1.28.94-.81,1.58-1.39,1.93-1.74.69-.68,1.04-1.3,1.04-1.86,0-.64-.27-1.16-.82-1.56-.23-.17-.48-.25-.74-.25-.11,0-.23.02-.35.05-.52.24-1.87,1.66-4.07,4.26-.46.53-.93,1.06-1.42,1.59-.18.2-.34.4-.52.6-.08.03-.15.05-.23.09-.4.2-.71.37-.93.52-1.8,1.14-2.99,1.72-3.58,1.72-.24,0-.41-.1-.51-.29-.1-.19-.19-.48-.25-.86-.04-.22-.09-.46-.15-.73-.26-.98-.74-1.68-1.43-2.11-.51-.32-1.1-.48-1.78-.48-.81,0-1.73.23-2.75.69-1.15.52-2.68,1.41-4.58,2.67-1.04.7-2.11,1.36-3.2,1.99-1.22.66-1.99.99-2.3.99-.18,0-.27-.07-.27-.21,0-.4.82-1.49,2.46-3.28.74-.82,1.46-1.61,2.16-2.36,2.55-2.73,4.51-4.98,5.87-6.77.54-.71.81-1.38.81-2.03,0-.03-.01-.23-.03-.58-.02-.36-.53-.68-1.54-.98-.1-.02-.21-.04-.33-.04-1.63,0-5.37,2.23-11.23,6.69-.32.24-.58.43-.77.58-.39.31-.63.46-.72.46-.02,0-.04-.02-.04-.07,0-.1.08-.35.23-.74.08-.23.12-.43.12-.58,0-.37-.17-.71-.52-1.04-.35-.33-.79-.52-1.31-.58-.61.05-1.4.6-2.36,1.65-1.68,1.75-3.31,3.61-4.9,5.55,0,0-.01,0-.02,0-.91.33-2.06.86-3.45,1.59-.73.39-1.47.77-2.23,1.13-1.04.51-1.79.76-2.25.76-.35,0-.52-.13-.52-.38,0-.56.56-1.48,1.68-2.78.34-.41.65-.8.92-1.18.4-.56.6-1.06.6-1.51,0-.41-.14-.77-.41-1.1-.32-.37-.7-.55-1.16-.55h-.23c-.42.11-1.24.58-2.44,1.42-.74.49-1.48.97-2.22,1.44-5,3.31-7.97,4.97-8.92,4.97-.19-.03-.29-.12-.29-.27,0-.31.35-.86,1.06-1.66,1.3-1.48,2.42-2.45,3.35-2.92.36-.19.72-.42,1.08-.68.45-.36.67-.71.67-1.05,0-.02,0-.12-.01-.3,0-.18-.17-.41-.5-.67-.39-.31-.84-.48-1.36-.51-.87,0-2.04.78-3.48,2.34-.54.59-1.01,1.13-1.43,1.65-.78.33-1.94.97-3.5,1.92-1.18.73-2.4,1.41-3.66,2.03-1.01.49-2.06.85-3.15,1.06-.25.03-.49.05-.7.05-.6,0-1.04-.15-1.32-.45-.27-.3-.41-.68-.41-1.15,0-.13.03-.39.1-.78.06-.39.27-.92.63-1.57.48-.87,1.04-1.59,1.66-2.14.62-.55,1.39-1.03,2.3-1.42,1.41-.64,2.67-1.35,3.79-2.1,1.12-.76,2.28-1.63,3.47-2.61,2.58-2.02,5.07-4.13,7.49-6.32.73-.68,1.47-1.3,2.21-1.88,3.88-3.18,6.84-5.91,8.88-8.18.09-.09.17-.18.25-.27.72-.72,1.09-1.36,1.09-1.91,0-.26-.06-.55-.18-.86-.42-.8-1.07-1.2-1.94-1.2-.76.03-1.62.31-2.56.82-.76.42-1.69,1-2.77,1.74-6.07,3.95-11.67,8.49-16.78,13.6-2.31,2.26-3.99,4.11-5.06,5.57-.48.64-.98,1.29-1.5,1.94-.66.81-1.29,1.64-1.9,2.49s-1.11,1.73-1.51,2.64c-.26.69-.39,1.41-.39,2.15,0,.02,0,.22.01.61,0,.39.22.92.64,1.57.75,1.05,1.64,1.7,2.65,1.94.47.11.95.17,1.43.17.56,0,1.25-.1,2.08-.31.83-.21,1.75-.56,2.76-1.05,1.07-.54,2.17-1.24,3.3-2.09.15-.11.29-.22.43-.34-.05.21-.08.41-.08.59,0,.13.03.42.09.88s.51,1.01,1.37,1.65c.35.22.75.33,1.19.33,1.53,0,3.82-1.2,6.88-3.61.02-.02.05-.04.08-.06.06-.05.15-.12.25-.21,1.07-.92,1.83-1.38,2.27-1.38.33,0,.5.29.5.86,0,.11,0,.23-.02.36-.02.13-.02.27-.02.43,0,.37.07.75.2,1.16.41,1,1.01,1.59,1.8,1.78.3.07.62.11.94.11.5,0,1.11-.12,1.83-.35.72-.23,1.44-.57,2.15-1,.27-.15.62-.38,1.04-.65-.07.21-.12.43-.12.65,0,.2.05.49.14.86.1.38.38.71.86,1,.18.09.37.13.57.13.25,0,.58-.09.99-.27.75-.33,1.81-1.16,3.18-2.48,3.52-3.3,7.92-6.78,13.21-10.46.08-.05.18-.12.3-.2.66-.48,1.25-.88,1.78-1.18.38-.22.64-.33.79-.33.06,0,.1.04.1.11,0,.03-.02.11-.07.24-.05.13-.28.45-.69.98-1.1,1.34-2.27,2.62-3.51,3.86-.83.84-1.65,1.71-2.43,2.59-.7.76-1.29,1.45-1.77,2.09-.48.64-.83,1.3-1.04,2-.08.27-.12.54-.12.82,0,.42.1.85.29,1.29.52.87,1.27,1.3,2.23,1.3,1.18,0,3.94-1.38,8.26-4.13,1.76-1.05,3.03-1.74,3.82-2.07.57-.25,1.03-.38,1.37-.38.09,0,.23.02.44.07s.47.42.78,1.12c.31.7.66,1.33,1.04,1.88.38.55.84.95,1.4,1.19.27.12.58.18.92.18.29,0,.6-.06.94-.14,0,.07-.02.13-.02.2,0,.37.12.79.36,1.29.24.49.63.81,1.17.97h.18c.66.01,1.65-.48,2.98-1.48,1.98-1.45,3.41-2.5,4.29-3.12,3.15-2.25,5.13-3.43,5.94-3.54.14.02.2.11.2.29,0,.38-.2,1.02-.61,1.91-.28.64-.42,1.26-.42,1.88,0,.4.1.93.29,1.6.19.67.75,1.31,1.66,1.91.33.16.71.24,1.12.24,1.28,0,3.13-.72,5.56-2.17.42-.25,1.12-.69,2.09-1.34.26-.17.49-.33.72-.49-.08.28-.13.57-.13.87,0,.46.1.95.3,1.45.59,1.49,1.68,2.24,3.28,2.24,1.4,0,3.18-.56,5.33-1.67,1.96-.95,3.85-2,5.65-3.14l.17-.12c.44-.27.89-.6,1.34-1,.44-.39.67-.83.68-1.32-.03-.39-.17-.58-.41-.58ZM327.34,19.48c1.64-2.34,5.14-5.51,10.49-9.52,4.9-3.76,7.53-5.64,7.91-5.64.02,0,.04,0,.04.02,0,.08-.19.32-.56.72-2.06,2.15-4.23,4.17-6.51,6.08-2.28,1.91-4.61,3.76-6.99,5.54-2.65,2.16-4.15,3.24-4.51,3.24-.04,0-.06-.02-.06-.06,0-.07.06-.2.19-.39ZM360.4,25.11s0,.01-.01.01l-1.55,1.17c-.37.29-.59.43-.68.43,0,0-.01,0-.01-.01,0-.1.29-.45.86-1.07.8-.87,1.42-1.3,1.84-1.3.06.05.08.1.08.17,0,.17-.17.38-.52.61Z"/>
  </g>
</svg>